<svg width="59" height="30" viewBox="0 0 59 30" fill="none" xmlns="http://www.w3.org/2000/svg">
    <rect x="0.25" y="0.25" width="58.5" height="29.5" rx="14.75" stroke="black" stroke-opacity="0.2" stroke-width="0.5"/>
    <rect x="0.5" y="0.5" width="29" height="29" rx="14.5" fill="black" fill-opacity="0.9"/>
    <path d="M19.5 9.16406H12.5C12.3453 9.16406 12.1969 9.22552 12.0875 9.33492C11.9781 9.44431 11.9167 9.59269 11.9167 9.7474V12.0807H10.75C10.5953 12.0807 10.4469 12.1422 10.3375 12.2516C10.2281 12.361 10.1667 12.5094 10.1667 12.6641V14.9974H9.00001C8.8453 14.9974 8.69692 15.0589 8.58753 15.1683C8.47813 15.2776 8.41667 15.426 8.41667 15.5807V20.2474C8.41667 20.4021 8.47813 20.5505 8.58753 20.6599C8.69692 20.7693 8.8453 20.8307 9.00001 20.8307H13.6667C13.8214 20.8307 13.9698 20.7693 14.0792 20.6599C14.1885 20.5505 14.25 20.4021 14.25 20.2474V19.0807H16.5833C16.738 19.0807 16.8864 19.0193 16.9958 18.9099C17.1052 18.8005 17.1667 18.6521 17.1667 18.4974V17.3307H19.5C19.6547 17.3307 19.8031 17.2693 19.9125 17.1599C20.0219 17.0505 20.0833 16.9021 20.0833 16.7474V9.7474C20.0833 9.59269 20.0219 9.44431 19.9125 9.33492C19.8031 9.22552 19.6547 9.16406 19.5 9.16406ZM13.0833 19.6641H9.58334V16.1641H13.0833V19.6641ZM16 17.9141H14.25V15.5807C14.25 15.426 14.1885 15.2776 14.0792 15.1683C13.9698 15.0589 13.8214 14.9974 13.6667 14.9974H11.3333V13.2474H16V17.9141ZM18.9167 16.1641H17.1667V12.6641C17.1667 12.5094 17.1052 12.361 16.9958 12.2516C16.8864 12.1422 16.738 12.0807 16.5833 12.0807H13.0833V10.3307H18.9167V16.1641Z" fill="white" fill-opacity="0.9"/>
    <path d="M42.8333 15.5807H38.75C38.5953 15.5807 38.4469 15.6422 38.3375 15.7516C38.2281 15.861 38.1667 16.0094 38.1667 16.1641V20.2474C38.1667 20.4021 38.2281 20.5505 38.3375 20.6599C38.4469 20.7693 38.5953 20.8307 38.75 20.8307H42.8333C42.988 20.8307 43.1364 20.7693 43.2458 20.6599C43.3552 20.5505 43.4167 20.4021 43.4167 20.2474V16.1641C43.4167 16.0094 43.3552 15.861 43.2458 15.7516C43.1364 15.6422 42.988 15.5807 42.8333 15.5807ZM42.25 19.6641H39.3333V16.7474H42.25V19.6641ZM49.25 9.16406H45.1667C45.012 9.16406 44.8636 9.22552 44.7542 9.33492C44.6448 9.44431 44.5833 9.59269 44.5833 9.7474V13.8307C44.5833 13.9854 44.6448 14.1338 44.7542 14.2432C44.8636 14.3526 45.012 14.4141 45.1667 14.4141H49.25C49.4047 14.4141 49.5531 14.3526 49.6625 14.2432C49.7719 14.1338 49.8333 13.9854 49.8333 13.8307V9.7474C49.8333 9.59269 49.7719 9.44431 49.6625 9.33492C49.5531 9.22552 49.4047 9.16406 49.25 9.16406ZM48.6667 13.2474H45.75V10.3307H48.6667V13.2474ZM49.25 15.5807H45.1667C45.012 15.5807 44.8636 15.6422 44.7542 15.7516C44.6448 15.861 44.5833 16.0094 44.5833 16.1641V20.2474C44.5833 20.4021 44.6448 20.5505 44.7542 20.6599C44.8636 20.7693 45.012 20.8307 45.1667 20.8307H49.25C49.4047 20.8307 49.5531 20.7693 49.6625 20.6599C49.7719 20.5505 49.8333 20.4021 49.8333 20.2474V16.1641C49.8333 16.0094 49.7719 15.861 49.6625 15.7516C49.5531 15.6422 49.4047 15.5807 49.25 15.5807ZM48.6667 19.6641H45.75V16.7474H48.6667V19.6641ZM42.8333 9.16406H38.75C38.5953 9.16406 38.4469 9.22552 38.3375 9.33492C38.2281 9.44431 38.1667 9.59269 38.1667 9.7474V13.8307C38.1667 13.9854 38.2281 14.1338 38.3375 14.2432C38.4469 14.3526 38.5953 14.4141 38.75 14.4141H42.8333C42.988 14.4141 43.1364 14.3526 43.2458 14.2432C43.3552 14.1338 43.4167 13.9854 43.4167 13.8307V9.7474C43.4167 9.59269 43.3552 9.44431 43.2458 9.33492C43.1364 9.22552 42.988 9.16406 42.8333 9.16406ZM42.25 13.2474H39.3333V10.3307H42.25V13.2474Z" fill="black" fill-opacity="0.2"/>
</svg>
